{
	"patcher" : 	{
		"fileversion" : 1,
		"appversion" : 		{
			"major" : 8,
			"minor" : 3,
			"revision" : 1,
			"architecture" : "x64",
			"modernui" : 1
		}
,
		"classnamespace" : "box",
		"rect" : [ 36.0, 265.0, 721.0, 345.0 ],
		"bglocked" : 0,
		"openinpresentation" : 1,
		"default_fontsize" : 12.0,
		"default_fontface" : 0,
		"default_fontname" : "Arial",
		"gridonopen" : 1,
		"gridsize" : [ 15.0, 15.0 ],
		"gridsnaponopen" : 1,
		"objectsnaponopen" : 1,
		"statusbarvisible" : 2,
		"toolbarvisible" : 1,
		"lefttoolbarpinned" : 0,
		"toptoolbarpinned" : 0,
		"righttoolbarpinned" : 0,
		"bottomtoolbarpinned" : 0,
		"toolbars_unpinned_last_save" : 0,
		"tallnewobj" : 0,
		"boxanimatetime" : 200,
		"enablehscroll" : 1,
		"enablevscroll" : 1,
		"devicewidth" : 0.0,
		"description" : "",
		"digest" : "",
		"tags" : "",
		"style" : "",
		"subpatcher_template" : "",
		"assistshowspatchername" : 0,
		"boxes" : [ 			{
				"box" : 				{
					"fontname" : "Gill Sans SemiBold Italic",
					"fontsize" : 24.0,
					"id" : "obj-14",
					"maxclass" : "comment",
					"numinlets" : 1,
					"numoutlets" : 0,
					"patching_rect" : [ 28.694916486740112, 80.0, 230.0, 35.0 ],
					"presentation" : 1,
					"presentation_rect" : [ 18.694916486740112, 88.0, 123.0, 35.0 ],
					"text" : "output gain"
				}

			}
, 			{
				"box" : 				{
					"fontname" : "Gill Sans SemiBold Italic",
					"fontsize" : 16.0,
					"id" : "obj-27",
					"maxclass" : "comment",
					"numinlets" : 1,
					"numoutlets" : 0,
					"patching_rect" : [ 272.694916486740112, 113.5, 169.0, 26.0 ],
					"presentation" : 1,
					"presentation_rect" : [ 578.194916486740112, 285.0, 36.0, 26.0 ],
					"text" : "gain"
				}

			}
, 			{
				"box" : 				{
					"fontname" : "Gill Sans SemiBold Italic",
					"fontsize" : 16.0,
					"id" : "obj-15",
					"maxclass" : "comment",
					"numinlets" : 1,
					"numoutlets" : 0,
					"patching_rect" : [ 85.694916486740112, 89.5, 169.0, 26.0 ],
					"presentation" : 1,
					"presentation_rect" : [ 312.694916486740112, 285.0, 36.0, 26.0 ],
					"text" : "gain"
				}

			}
, 			{
				"box" : 				{
					"fontname" : "Gill Sans SemiBold Italic",
					"fontsize" : 24.0,
					"id" : "obj-25",
					"maxclass" : "comment",
					"numinlets" : 1,
					"numoutlets" : 0,
					"patching_rect" : [ 214.694916486740112, 91.5, 230.0, 35.0 ],
					"presentation" : 1,
					"presentation_rect" : [ 492.694916486740112, 88.0, 136.0, 35.0 ],
					"text" : "right channel"
				}

			}
, 			{
				"box" : 				{
					"fontname" : "Gill Sans SemiBold Italic",
					"fontsize" : 24.0,
					"id" : "obj-24",
					"maxclass" : "comment",
					"numinlets" : 1,
					"numoutlets" : 0,
					"patching_rect" : [ 83.694916486740112, 97.759999999999991, 230.0, 35.0 ],
					"presentation" : 1,
					"presentation_rect" : [ 228.694916486740112, 88.0, 123.0, 35.0 ],
					"text" : "left channel"
				}

			}
, 			{
				"box" : 				{
					"fontface" : 2,
					"fontname" : "Futura Medium Italic",
					"fontsize" : 36.0,
					"id" : "obj-62",
					"maxclass" : "comment",
					"numinlets" : 1,
					"numoutlets" : 0,
					"patching_rect" : [ 14.909090909090935, 8.400000512599945, 421.0, 53.0 ],
					"presentation" : 1,
					"presentation_rect" : [ 18.694916486740112, 20.400000512599945, 149.0, 53.0 ],
					"text" : "OUTPUT",
					"textcolor" : [ 0.011765, 0.396078, 0.752941, 1.0 ]
				}

			}
, 			{
				"box" : 				{
					"fontname" : "Gill Sans SemiBold Italic",
					"id" : "obj-16",
					"maxclass" : "comment",
					"numinlets" : 1,
					"numoutlets" : 0,
					"patching_rect" : [ 283.694916486740112, 227.0, 144.0, 21.0 ],
					"presentation" : 1,
					"presentation_linecount" : 2,
					"presentation_rect" : [ 632.694916486740112, 287.5, 66.0, 35.0 ],
					"text" : "attenuated signal",
					"textjustification" : 1
				}

			}
, 			{
				"box" : 				{
					"fontname" : "Gill Sans SemiBold Italic",
					"id" : "obj-17",
					"maxclass" : "comment",
					"numinlets" : 1,
					"numoutlets" : 0,
					"patching_rect" : [ 205.694916486740112, 227.0, 143.0, 21.0 ],
					"presentation" : 1,
					"presentation_rect" : [ 492.694916486740112, 287.5, 36.0, 21.0 ],
					"text" : "direct"
				}

			}
, 			{
				"box" : 				{
					"fontname" : "Gill Sans SemiBold Italic",
					"id" : "obj-18",
					"linecount" : 2,
					"maxclass" : "comment",
					"numinlets" : 1,
					"numoutlets" : 0,
					"patching_rect" : [ 109.694916486740112, 229.0, 144.0, 35.0 ],
					"presentation" : 1,
					"presentation_linecount" : 2,
					"presentation_rect" : [ 364.694916486740112, 287.5, 62.0, 35.0 ],
					"text" : "attenuated\nsignal",
					"textjustification" : 1
				}

			}
, 			{
				"box" : 				{
					"fontname" : "Gill Sans SemiBold Italic",
					"id" : "obj-19",
					"maxclass" : "comment",
					"numinlets" : 1,
					"numoutlets" : 0,
					"patching_rect" : [ 27.0, 67.0, 143.0, 21.0 ],
					"presentation" : 1,
					"presentation_rect" : [ 228.694916486740112, 287.5, 36.0, 21.0 ],
					"text" : "direct"
				}

			}
, 			{
				"box" : 				{
					"fontname" : "Gill Sans SemiBold Italic",
					"fontsize" : 24.0,
					"id" : "obj-20",
					"maxclass" : "comment",
					"numinlets" : 1,
					"numoutlets" : 0,
					"patching_rect" : [ 414.0, 230.0, 230.0, 35.0 ],
					"presentation" : 1,
					"presentation_rect" : [ 66.694916486740112, 203.259999999999991, 35.0, 35.0 ],
					"text" : "dB"
				}

			}
, 			{
				"box" : 				{
					"color" : [ 0.317647, 0.654902, 0.976471, 1.0 ],
					"id" : "obj-12",
					"maxclass" : "newobj",
					"numinlets" : 0,
					"numoutlets" : 1,
					"outlettype" : [ "" ],
					"patching_rect" : [ 66.0, 105.0, 124.0, 22.0 ],
					"text" : "r patch.output.volume"
				}

			}
, 			{
				"box" : 				{
					"id" : "obj-13",
					"maxclass" : "newobj",
					"numinlets" : 2,
					"numoutlets" : 2,
					"outlettype" : [ "signal", "signal" ],
					"patching_rect" : [ 370.0, 377.0, 122.0, 22.0 ],
					"text" : "limi~ 2 @threshold 0."
				}

			}
, 			{
				"box" : 				{
					"id" : "obj-11",
					"maxclass" : "ezdac~",
					"numinlets" : 2,
					"numoutlets" : 0,
					"patching_rect" : [ 388.0, 436.0, 45.0, 45.0 ],
					"presentation" : 1,
					"presentation_rect" : [ 66.694916486740112, 137.0, 58.694916486740112, 58.694916486740119 ]
				}

			}
, 			{
				"box" : 				{
					"id" : "obj-30",
					"maxclass" : "comment",
					"numinlets" : 1,
					"numoutlets" : 0,
					"patching_rect" : [ 167.805083513259888, 412.0, 29.0, 20.0 ],
					"text" : "dB"
				}

			}
, 			{
				"box" : 				{
					"fontsize" : 28.057825632984496,
					"format" : 6,
					"id" : "obj-28",
					"maxclass" : "flonum",
					"numinlets" : 1,
					"numoutlets" : 2,
					"outlettype" : [ "", "bang" ],
					"parameter_enable" : 0,
					"patching_rect" : [ 114.0, 412.0, 80.0, 40.0 ],
					"presentation" : 1,
					"presentation_rect" : [ 66.694916486740112, 237.0, 91.0, 40.0 ]
				}

			}
, 			{
				"box" : 				{
					"id" : "obj-26",
					"maxclass" : "newobj",
					"numinlets" : 1,
					"numoutlets" : 1,
					"outlettype" : [ "" ],
					"patching_rect" : [ 114.0, 367.0, 111.0, 22.0 ],
					"text" : "expr ($i1 - 127)*0.6"
				}

			}
, 			{
				"box" : 				{
					"id" : "obj-4",
					"maxclass" : "newobj",
					"numinlets" : 1,
					"numoutlets" : 1,
					"outlettype" : [ "signal" ],
					"patching_rect" : [ 491.0, 161.0, 81.0, 22.0 ],
					"text" : "receive~ out2"
				}

			}
, 			{
				"box" : 				{
					"id" : "obj-8",
					"maxclass" : "gain~",
					"multichannelvariant" : 0,
					"numinlets" : 1,
					"numoutlets" : 2,
					"outlettype" : [ "signal", "" ],
					"parameter_enable" : 0,
					"patching_rect" : [ 485.694916486740112, 215.983052968978882, 22.0, 140.0 ],
					"presentation" : 1,
					"presentation_rect" : [ 585.194916486740112, 137.0, 22.0, 140.0 ]
				}

			}
, 			{
				"box" : 				{
					"id" : "obj-9",
					"maxclass" : "live.meter~",
					"numinlets" : 1,
					"numoutlets" : 2,
					"outlettype" : [ "float", "int" ],
					"patching_rect" : [ 534.694916486740112, 215.983052968978882, 16.0, 140.0 ],
					"presentation" : 1,
					"presentation_rect" : [ 657.694916486740112, 137.0, 16.0, 140.0 ]
				}

			}
, 			{
				"box" : 				{
					"id" : "obj-10",
					"maxclass" : "live.meter~",
					"numinlets" : 1,
					"numoutlets" : 2,
					"outlettype" : [ "float", "int" ],
					"patching_rect" : [ 443.694916486740112, 215.983052968978882, 16.0, 140.0 ],
					"presentation" : 1,
					"presentation_rect" : [ 502.694916486740112, 137.0, 16.0, 140.0 ]
				}

			}
, 			{
				"box" : 				{
					"id" : "obj-3",
					"maxclass" : "newobj",
					"numinlets" : 1,
					"numoutlets" : 1,
					"outlettype" : [ "signal" ],
					"patching_rect" : [ 330.0, 161.0, 81.0, 22.0 ],
					"text" : "receive~ out1"
				}

			}
, 			{
				"box" : 				{
					"id" : "obj-7",
					"maxclass" : "gain~",
					"multichannelvariant" : 0,
					"numinlets" : 1,
					"numoutlets" : 2,
					"outlettype" : [ "signal", "" ],
					"parameter_enable" : 0,
					"patching_rect" : [ 324.694916486740112, 215.983052968978882, 22.0, 140.0 ],
					"presentation" : 1,
					"presentation_rect" : [ 319.694916486740112, 137.0, 22.0, 140.0 ]
				}

			}
, 			{
				"box" : 				{
					"id" : "obj-6",
					"maxclass" : "live.meter~",
					"numinlets" : 1,
					"numoutlets" : 2,
					"outlettype" : [ "float", "int" ],
					"patching_rect" : [ 373.694916486740112, 215.983052968978882, 16.0, 140.0 ],
					"presentation" : 1,
					"presentation_rect" : [ 387.694916486740112, 137.0, 16.0, 140.0 ]
				}

			}
, 			{
				"box" : 				{
					"id" : "obj-5",
					"maxclass" : "live.meter~",
					"numinlets" : 1,
					"numoutlets" : 2,
					"outlettype" : [ "float", "int" ],
					"patching_rect" : [ 282.694916486740112, 215.983052968978882, 16.0, 140.0 ],
					"presentation" : 1,
					"presentation_rect" : [ 238.694916486740112, 137.0, 16.0, 140.0 ]
				}

			}
, 			{
				"box" : 				{
					"id" : "obj-2",
					"maxclass" : "slider",
					"numinlets" : 1,
					"numoutlets" : 1,
					"outlettype" : [ "" ],
					"parameter_enable" : 0,
					"patching_rect" : [ 114.0, 204.0, 20.0, 140.0 ],
					"presentation" : 1,
					"presentation_rect" : [ 31.0, 137.0, 20.0, 140.0 ]
				}

			}
, 			{
				"box" : 				{
					"id" : "obj-1",
					"maxclass" : "newobj",
					"numinlets" : 1,
					"numoutlets" : 1,
					"outlettype" : [ "" ],
					"patching_rect" : [ 114.0, 159.0, 83.0, 22.0 ],
					"text" : "loadmess 128"
				}

			}
 ],
		"lines" : [ 			{
				"patchline" : 				{
					"destination" : [ "obj-2", 0 ],
					"source" : [ "obj-1", 0 ]
				}

			}
, 			{
				"patchline" : 				{
					"destination" : [ "obj-2", 0 ],
					"source" : [ "obj-12", 0 ]
				}

			}
, 			{
				"patchline" : 				{
					"destination" : [ "obj-11", 1 ],
					"source" : [ "obj-13", 1 ]
				}

			}
, 			{
				"patchline" : 				{
					"destination" : [ "obj-11", 0 ],
					"source" : [ "obj-13", 0 ]
				}

			}
, 			{
				"patchline" : 				{
					"destination" : [ "obj-26", 0 ],
					"order" : 2,
					"source" : [ "obj-2", 0 ]
				}

			}
, 			{
				"patchline" : 				{
					"destination" : [ "obj-7", 0 ],
					"order" : 1,
					"source" : [ "obj-2", 0 ]
				}

			}
, 			{
				"patchline" : 				{
					"destination" : [ "obj-8", 0 ],
					"order" : 0,
					"source" : [ "obj-2", 0 ]
				}

			}
, 			{
				"patchline" : 				{
					"destination" : [ "obj-28", 0 ],
					"source" : [ "obj-26", 0 ]
				}

			}
, 			{
				"patchline" : 				{
					"destination" : [ "obj-5", 0 ],
					"order" : 1,
					"source" : [ "obj-3", 0 ]
				}

			}
, 			{
				"patchline" : 				{
					"destination" : [ "obj-7", 0 ],
					"order" : 0,
					"source" : [ "obj-3", 0 ]
				}

			}
, 			{
				"patchline" : 				{
					"destination" : [ "obj-10", 0 ],
					"order" : 1,
					"source" : [ "obj-4", 0 ]
				}

			}
, 			{
				"patchline" : 				{
					"destination" : [ "obj-8", 0 ],
					"order" : 0,
					"source" : [ "obj-4", 0 ]
				}

			}
, 			{
				"patchline" : 				{
					"destination" : [ "obj-13", 0 ],
					"order" : 1,
					"source" : [ "obj-7", 0 ]
				}

			}
, 			{
				"patchline" : 				{
					"destination" : [ "obj-6", 0 ],
					"midpoints" : [ 334.194916486740112, 357.983052968978882, 360.694916486740112, 357.983052968978882, 360.694916486740112, 210.983052968978882, 383.194916486740112, 210.983052968978882 ],
					"order" : 0,
					"source" : [ "obj-7", 0 ]
				}

			}
, 			{
				"patchline" : 				{
					"destination" : [ "obj-13", 1 ],
					"order" : 1,
					"source" : [ "obj-8", 0 ]
				}

			}
, 			{
				"patchline" : 				{
					"destination" : [ "obj-9", 0 ],
					"midpoints" : [ 495.194916486740112, 357.983052968978882, 521.694916486740112, 357.983052968978882, 521.694916486740112, 210.983052968978882, 544.194916486740112, 210.983052968978882 ],
					"order" : 0,
					"source" : [ "obj-8", 0 ]
				}

			}
 ]
	}

}
