{
	"patcher" : 	{
		"fileversion" : 1,
		"appversion" : 		{
			"major" : 8,
			"minor" : 3,
			"revision" : 1,
			"architecture" : "x64",
			"modernui" : 1
		}
,
		"classnamespace" : "box",
		"rect" : [ 243.0, 166.0, 1167.0, 700.0 ],
		"bglocked" : 0,
		"openinpresentation" : 0,
		"default_fontsize" : 12.0,
		"default_fontface" : 0,
		"default_fontname" : "Arial",
		"gridonopen" : 1,
		"gridsize" : [ 15.0, 15.0 ],
		"gridsnaponopen" : 1,
		"objectsnaponopen" : 1,
		"statusbarvisible" : 2,
		"toolbarvisible" : 1,
		"lefttoolbarpinned" : 0,
		"toptoolbarpinned" : 0,
		"righttoolbarpinned" : 0,
		"bottomtoolbarpinned" : 0,
		"toolbars_unpinned_last_save" : 0,
		"tallnewobj" : 0,
		"boxanimatetime" : 200,
		"enablehscroll" : 1,
		"enablevscroll" : 1,
		"devicewidth" : 0.0,
		"description" : "",
		"digest" : "",
		"tags" : "",
		"style" : "",
		"subpatcher_template" : "",
		"assistshowspatchername" : 0,
		"boxes" : [ 			{
				"box" : 				{
					"color" : [ 0.439216, 0.74902, 0.254902, 1.0 ],
					"id" : "obj-42",
					"maxclass" : "newobj",
					"numinlets" : 0,
					"numoutlets" : 1,
					"outlettype" : [ "" ],
					"patching_rect" : [ 245.25, 312.0, 83.0, 22.0 ],
					"text" : "r mlys.hidamp"
				}

			}
, 			{
				"box" : 				{
					"color" : [ 0.439216, 0.74902, 0.254902, 1.0 ],
					"id" : "obj-40",
					"maxclass" : "newobj",
					"numinlets" : 0,
					"numoutlets" : 1,
					"outlettype" : [ "" ],
					"patching_rect" : [ 426.25, 312.0, 76.0, 22.0 ],
					"text" : "r mlys.in.pos"
				}

			}
, 			{
				"box" : 				{
					"color" : [ 0.439216, 0.74902, 0.254902, 1.0 ],
					"id" : "obj-41",
					"maxclass" : "newobj",
					"numinlets" : 0,
					"numoutlets" : 1,
					"outlettype" : [ "" ],
					"patching_rect" : [ 304.25, 487.0, 83.0, 22.0 ],
					"text" : "r mlys.out.pos"
				}

			}
, 			{
				"box" : 				{
					"color" : [ 0.960784, 0.827451, 0.156863, 1.0 ],
					"id" : "obj-2",
					"maxclass" : "newobj",
					"numinlets" : 1,
					"numoutlets" : 1,
					"outlettype" : [ "signal" ],
					"patching_rect" : [ 982.0, 528.5, 74.0, 22.0 ],
					"text" : "receive~ in2"
				}

			}
, 			{
				"box" : 				{
					"id" : "obj-39",
					"maxclass" : "newobj",
					"numinlets" : 2,
					"numoutlets" : 1,
					"outlettype" : [ "signal" ],
					"patching_rect" : [ 1053.5, 228.0, 47.0, 22.0 ],
					"text" : "*~ 400."
				}

			}
, 			{
				"box" : 				{
					"id" : "obj-38",
					"maxclass" : "newobj",
					"numinlets" : 1,
					"numoutlets" : 0,
					"patching_rect" : [ 706.0, 758.0, 42.0, 22.0 ],
					"text" : "out~ 1"
				}

			}
, 			{
				"box" : 				{
					"id" : "obj-36",
					"maxclass" : "newobj",
					"numinlets" : 1,
					"numoutlets" : 1,
					"outlettype" : [ "" ],
					"patching_rect" : [ 124.25, 7.0, 19.0, 22.0 ],
					"text" : "in"
				}

			}
, 			{
				"box" : 				{
					"id" : "obj-70",
					"maxclass" : "newobj",
					"numinlets" : 2,
					"numoutlets" : 1,
					"outlettype" : [ "float" ],
					"patching_rect" : [ 894.020812511444092, 118.0, 39.0, 22.0 ],
					"text" : "/ 127."
				}

			}
, 			{
				"box" : 				{
					"color" : [ 0.317647, 0.654902, 0.976471, 1.0 ],
					"id" : "obj-63",
					"maxclass" : "newobj",
					"numinlets" : 0,
					"numoutlets" : 1,
					"outlettype" : [ "" ],
					"patching_rect" : [ 1317.020812511444092, 118.0, 58.979187488555908, 22.0 ],
					"text" : "r mlys.rel"
				}

			}
, 			{
				"box" : 				{
					"color" : [ 0.317647, 0.654902, 0.976471, 1.0 ],
					"id" : "obj-64",
					"maxclass" : "newobj",
					"numinlets" : 0,
					"numoutlets" : 1,
					"outlettype" : [ "" ],
					"patching_rect" : [ 1249.0, 118.0, 62.0, 22.0 ],
					"text" : "r mlys.sus"
				}

			}
, 			{
				"box" : 				{
					"color" : [ 0.317647, 0.654902, 0.976471, 1.0 ],
					"id" : "obj-34",
					"maxclass" : "newobj",
					"numinlets" : 0,
					"numoutlets" : 1,
					"outlettype" : [ "" ],
					"patching_rect" : [ 1179.0, 118.0, 63.0, 22.0 ],
					"text" : "r mlys.dec"
				}

			}
, 			{
				"box" : 				{
					"color" : [ 0.317647, 0.654902, 0.976471, 1.0 ],
					"id" : "obj-71",
					"maxclass" : "newobj",
					"numinlets" : 0,
					"numoutlets" : 1,
					"outlettype" : [ "" ],
					"patching_rect" : [ 1120.0, 118.0, 57.0, 22.0 ],
					"text" : "r mlys.att"
				}

			}
, 			{
				"box" : 				{
					"id" : "obj-58",
					"maxclass" : "number",
					"numinlets" : 1,
					"numoutlets" : 2,
					"outlettype" : [ "", "bang" ],
					"parameter_enable" : 0,
					"patching_rect" : [ 1312.0, 225.0, 50.0, 22.0 ]
				}

			}
, 			{
				"box" : 				{
					"id" : "obj-59",
					"maxclass" : "message",
					"numinlets" : 2,
					"numoutlets" : 1,
					"outlettype" : [ "" ],
					"patching_rect" : [ 1059.0, 88.0, 59.0, 22.0 ],
					"text" : "mute 1, 0"
				}

			}
, 			{
				"box" : 				{
					"id" : "obj-60",
					"maxclass" : "newobj",
					"numinlets" : 1,
					"numoutlets" : 2,
					"outlettype" : [ "bang", "int" ],
					"patching_rect" : [ 1059.0, 45.999999403953552, 32.0, 22.0 ],
					"text" : "t b 0"
				}

			}
, 			{
				"box" : 				{
					"id" : "obj-119",
					"maxclass" : "newobj",
					"numinlets" : 1,
					"numoutlets" : 3,
					"outlettype" : [ "int", "int", "int" ],
					"patching_rect" : [ 1111.0, 228.0, 56.0, 22.0 ],
					"text" : "thispoly~"
				}

			}
, 			{
				"box" : 				{
					"color" : [ 0.92549, 0.364706, 0.341176, 1.0 ],
					"id" : "obj-118",
					"maxclass" : "newobj",
					"numinlets" : 5,
					"numoutlets" : 4,
					"outlettype" : [ "signal", "signal", "", "" ],
					"patching_rect" : [ 1068.4375, 163.0, 259.75, 22.0 ],
					"text" : "adsr~ 50 0 0.9 1000"
				}

			}
, 			{
				"box" : 				{
					"color" : [ 0.952941, 0.564706, 0.098039, 1.0 ],
					"id" : "obj-20",
					"maxclass" : "newobj",
					"numinlets" : 0,
					"numoutlets" : 1,
					"outlettype" : [ "" ],
					"patching_rect" : [ 1059.0, 12.0, 122.0, 22.0 ],
					"text" : "r mlys.engine.muteall"
				}

			}
, 			{
				"box" : 				{
					"id" : "obj-32",
					"maxclass" : "newobj",
					"numinlets" : 1,
					"numoutlets" : 0,
					"patching_rect" : [ 846.0, 758.0, 35.0, 22.0 ],
					"text" : "out 2"
				}

			}
, 			{
				"box" : 				{
					"id" : "obj-30",
					"maxclass" : "newobj",
					"numinlets" : 1,
					"numoutlets" : 3,
					"outlettype" : [ "float", "int", "" ],
					"patching_rect" : [ 124.25, 45.999999403953552, 85.0, 22.0 ],
					"text" : "unpack f i sym"
				}

			}
, 			{
				"box" : 				{
					"id" : "obj-28",
					"maxclass" : "comment",
					"numinlets" : 1,
					"numoutlets" : 0,
					"patching_rect" : [ 695.25, 1.0, 377.0, 20.0 ],
					"text" : "midinote, vel, high freq damp, strike pos, output position, material"
				}

			}
, 			{
				"box" : 				{
					"id" : "obj-22",
					"maxclass" : "newobj",
					"numinlets" : 1,
					"numoutlets" : 0,
					"patching_rect" : [ 804.0, 758.0, 35.0, 22.0 ],
					"text" : "out 1"
				}

			}
, 			{
				"box" : 				{
					"color" : [ 0.960784, 0.827451, 0.156863, 1.0 ],
					"id" : "obj-55",
					"maxclass" : "newobj",
					"numinlets" : 2,
					"numoutlets" : 1,
					"outlettype" : [ "signal" ],
					"patching_rect" : [ 706.25, 722.5, 147.75, 22.0 ],
					"text" : "*~"
				}

			}
, 			{
				"box" : 				{
					"color" : [ 0.960784, 0.827451, 0.156863, 1.0 ],
					"id" : "obj-54",
					"maxclass" : "newobj",
					"numinlets" : 1,
					"numoutlets" : 1,
					"outlettype" : [ "signal" ],
					"patching_rect" : [ 876.5, 528.5, 74.0, 22.0 ],
					"text" : "receive~ in1"
				}

			}
, 			{
				"box" : 				{
					"fontsize" : 20.0,
					"id" : "obj-48",
					"maxclass" : "newobj",
					"numinlets" : 1,
					"numoutlets" : 2,
					"outlettype" : [ "bang", "" ],
					"patcher" : 					{
						"fileversion" : 1,
						"appversion" : 						{
							"major" : 8,
							"minor" : 3,
							"revision" : 1,
							"architecture" : "x64",
							"modernui" : 1
						}
,
						"classnamespace" : "box",
						"rect" : [ 59.0, 113.0, 640.0, 480.0 ],
						"bglocked" : 0,
						"openinpresentation" : 0,
						"default_fontsize" : 12.0,
						"default_fontface" : 0,
						"default_fontname" : "Arial",
						"gridonopen" : 1,
						"gridsize" : [ 15.0, 15.0 ],
						"gridsnaponopen" : 1,
						"objectsnaponopen" : 1,
						"statusbarvisible" : 2,
						"toolbarvisible" : 1,
						"lefttoolbarpinned" : 0,
						"toptoolbarpinned" : 0,
						"righttoolbarpinned" : 0,
						"bottomtoolbarpinned" : 0,
						"toolbars_unpinned_last_save" : 0,
						"tallnewobj" : 0,
						"boxanimatetime" : 200,
						"enablehscroll" : 1,
						"enablevscroll" : 1,
						"devicewidth" : 0.0,
						"description" : "",
						"digest" : "",
						"tags" : "",
						"style" : "",
						"subpatcher_template" : "",
						"assistshowspatchername" : 0,
						"boxes" : [ 							{
								"box" : 								{
									"id" : "obj-16",
									"maxclass" : "comment",
									"numinlets" : 1,
									"numoutlets" : 0,
									"patching_rect" : [ 148.0, 59.0, 150.0, 20.0 ],
									"text" : "material symbol"
								}

							}
, 							{
								"box" : 								{
									"id" : "obj-14",
									"maxclass" : "message",
									"numinlets" : 2,
									"numoutlets" : 1,
									"outlettype" : [ "" ],
									"patching_rect" : [ 309.0, 258.0, 75.0, 22.0 ],
									"text" : "young $1 $2"
								}

							}
, 							{
								"box" : 								{
									"id" : "obj-12",
									"maxclass" : "message",
									"numinlets" : 2,
									"numoutlets" : 1,
									"outlettype" : [ "" ],
									"patching_rect" : [ 182.0, 258.0, 63.0, 22.0 ],
									"text" : "density $1"
								}

							}
, 							{
								"box" : 								{
									"id" : "obj-10",
									"maxclass" : "comment",
									"numinlets" : 1,
									"numoutlets" : 0,
									"patching_rect" : [ 397.0, 208.0, 150.0, 20.0 ],
									"text" : "1st number, rest of list"
								}

							}
, 							{
								"box" : 								{
									"id" : "obj-8",
									"maxclass" : "newobj",
									"numinlets" : 2,
									"numoutlets" : 2,
									"outlettype" : [ "", "" ],
									"patching_rect" : [ 182.0, 208.0, 151.0, 22.0 ],
									"text" : "zl slice 1"
								}

							}
, 							{
								"box" : 								{
									"id" : "obj-7",
									"maxclass" : "newobj",
									"numinlets" : 1,
									"numoutlets" : 2,
									"outlettype" : [ "bang", "" ],
									"patching_rect" : [ 100.0, 96.0, 101.0, 22.0 ],
									"text" : "t b s"
								}

							}
, 							{
								"box" : 								{
									"comment" : "",
									"id" : "obj-6",
									"index" : 2,
									"maxclass" : "outlet",
									"numinlets" : 1,
									"numoutlets" : 0,
									"patching_rect" : [ 247.0, 353.0, 30.0, 30.0 ]
								}

							}
, 							{
								"box" : 								{
									"comment" : "",
									"id" : "obj-5",
									"index" : 1,
									"maxclass" : "outlet",
									"numinlets" : 1,
									"numoutlets" : 0,
									"patching_rect" : [ 100.0, 353.0, 30.0, 30.0 ]
								}

							}
, 							{
								"box" : 								{
									"comment" : "",
									"id" : "obj-4",
									"index" : 1,
									"maxclass" : "inlet",
									"numinlets" : 0,
									"numoutlets" : 1,
									"outlettype" : [ "" ],
									"patching_rect" : [ 100.0, 52.0, 30.0, 30.0 ]
								}

							}
, 							{
								"box" : 								{
									"id" : "obj-1",
									"maxclass" : "newobj",
									"numinlets" : 1,
									"numoutlets" : 4,
									"outlettype" : [ "", "", "", "" ],
									"patching_rect" : [ 182.0, 163.0, 127.0, 22.0 ],
									"saved_object_attributes" : 									{
										"embed" : 0,
										"precision" : 6
									}
,
									"text" : "coll some.materials.txt"
								}

							}
 ],
						"lines" : [ 							{
								"patchline" : 								{
									"destination" : [ "obj-8", 0 ],
									"source" : [ "obj-1", 0 ]
								}

							}
, 							{
								"patchline" : 								{
									"destination" : [ "obj-6", 0 ],
									"source" : [ "obj-12", 0 ]
								}

							}
, 							{
								"patchline" : 								{
									"destination" : [ "obj-6", 0 ],
									"source" : [ "obj-14", 0 ]
								}

							}
, 							{
								"patchline" : 								{
									"destination" : [ "obj-7", 0 ],
									"source" : [ "obj-4", 0 ]
								}

							}
, 							{
								"patchline" : 								{
									"destination" : [ "obj-1", 0 ],
									"source" : [ "obj-7", 1 ]
								}

							}
, 							{
								"patchline" : 								{
									"destination" : [ "obj-5", 0 ],
									"source" : [ "obj-7", 0 ]
								}

							}
, 							{
								"patchline" : 								{
									"destination" : [ "obj-12", 0 ],
									"source" : [ "obj-8", 0 ]
								}

							}
, 							{
								"patchline" : 								{
									"destination" : [ "obj-14", 0 ],
									"source" : [ "obj-8", 1 ]
								}

							}
 ]
					}
,
					"patching_rect" : [ 908.0, 440.0, 148.0, 31.0 ],
					"saved_object_attributes" : 					{
						"description" : "",
						"digest" : "",
						"globalpatchername" : "",
						"tags" : ""
					}
,
					"text" : "p material"
				}

			}
, 			{
				"box" : 				{
					"color" : [ 0.439216, 0.74902, 0.254902, 1.0 ],
					"id" : "obj-33",
					"maxclass" : "newobj",
					"numinlets" : 0,
					"numoutlets" : 1,
					"outlettype" : [ "" ],
					"patching_rect" : [ 186.25, 312.0, 43.0, 22.0 ],
					"text" : "r reset"
				}

			}
, 			{
				"box" : 				{
					"id" : "obj-35",
					"maxclass" : "message",
					"numinlets" : 2,
					"numoutlets" : 1,
					"outlettype" : [ "" ],
					"patching_rect" : [ 186.25, 407.0, 145.0, 22.0 ],
					"text" : "MonoString@freq-loss $1"
				}

			}
, 			{
				"box" : 				{
					"id" : "obj-45",
					"maxclass" : "live.slider",
					"numinlets" : 1,
					"numoutlets" : 2,
					"orientation" : 1,
					"outlettype" : [ "", "float" ],
					"parameter_enable" : 1,
					"patching_rect" : [ 186.25, 350.0, 156.0, 41.0 ],
					"saved_attribute_attributes" : 					{
						"valueof" : 						{
							"parameter_exponent" : 3.0,
							"parameter_initial" : [ 0.05 ],
							"parameter_initial_enable" : 1,
							"parameter_longname" : "live.slider[59]",
							"parameter_mmax" : 10.0,
							"parameter_shortname" : "HighFreqDamp",
							"parameter_type" : 0,
							"parameter_unitstyle" : 1
						}

					}
,
					"varname" : "live.slider[3]"
				}

			}
, 			{
				"box" : 				{
					"id" : "obj-47",
					"maxclass" : "comment",
					"numinlets" : 1,
					"numoutlets" : 0,
					"patching_rect" : [ 186.25, 287.0, 161.0, 20.0 ],
					"text" : "HighFreqDamp"
				}

			}
, 			{
				"box" : 				{
					"color" : [ 0.439216, 0.74902, 0.254902, 1.0 ],
					"id" : "obj-27",
					"maxclass" : "newobj",
					"numinlets" : 0,
					"numoutlets" : 1,
					"outlettype" : [ "" ],
					"patching_rect" : [ 17.25, 312.0, 43.0, 22.0 ],
					"text" : "r reset"
				}

			}
, 			{
				"box" : 				{
					"id" : "obj-29",
					"maxclass" : "message",
					"numinlets" : 2,
					"numoutlets" : 1,
					"outlettype" : [ "" ],
					"patching_rect" : [ 17.25, 407.0, 153.0, 22.0 ],
					"text" : "MonoString@const-loss $1"
				}

			}
, 			{
				"box" : 				{
					"id" : "obj-31",
					"maxclass" : "live.slider",
					"numinlets" : 1,
					"numoutlets" : 2,
					"orientation" : 1,
					"outlettype" : [ "", "float" ],
					"parameter_enable" : 1,
					"patching_rect" : [ 17.25, 350.0, 156.0, 41.0 ],
					"saved_attribute_attributes" : 					{
						"valueof" : 						{
							"parameter_initial" : [ 0.35 ],
							"parameter_initial_enable" : 1,
							"parameter_longname" : "live.slider[68]",
							"parameter_mmax" : 10.0,
							"parameter_shortname" : "Damping",
							"parameter_type" : 0,
							"parameter_unitstyle" : 1
						}

					}
,
					"varname" : "live.slider[2]"
				}

			}
, 			{
				"box" : 				{
					"id" : "obj-24",
					"maxclass" : "comment",
					"numinlets" : 1,
					"numoutlets" : 0,
					"patching_rect" : [ 17.25, 287.0, 161.0, 20.0 ],
					"text" : "string damping parameters"
				}

			}
, 			{
				"box" : 				{
					"id" : "obj-19",
					"maxclass" : "comment",
					"numinlets" : 1,
					"numoutlets" : 0,
					"patching_rect" : [ 367.25, 287.0, 150.0, 20.0 ],
					"text" : "strike position"
				}

			}
, 			{
				"box" : 				{
					"id" : "obj-13",
					"maxclass" : "comment",
					"numinlets" : 1,
					"numoutlets" : 0,
					"patching_rect" : [ 245.25, 459.0, 150.0, 20.0 ],
					"text" : "listening position"
				}

			}
, 			{
				"box" : 				{
					"color" : [ 0.439216, 0.74902, 0.254902, 1.0 ],
					"id" : "obj-50",
					"maxclass" : "newobj",
					"numinlets" : 0,
					"numoutlets" : 1,
					"outlettype" : [ "" ],
					"patching_rect" : [ 367.25, 312.0, 43.0, 22.0 ],
					"text" : "r reset"
				}

			}
, 			{
				"box" : 				{
					"id" : "obj-51",
					"maxclass" : "message",
					"numinlets" : 2,
					"numoutlets" : 1,
					"outlettype" : [ "" ],
					"patching_rect" : [ 367.25, 407.0, 232.0, 22.0 ],
					"text" : "MonoString@access-in-1-position $1 0.01"
				}

			}
, 			{
				"box" : 				{
					"id" : "obj-52",
					"maxclass" : "live.slider",
					"numinlets" : 1,
					"numoutlets" : 2,
					"orientation" : 1,
					"outlettype" : [ "", "float" ],
					"parameter_enable" : 1,
					"patching_rect" : [ 367.25, 350.0, 156.0, 41.0 ],
					"saved_attribute_attributes" : 					{
						"valueof" : 						{
							"parameter_initial" : [ 0.14 ],
							"parameter_initial_enable" : 1,
							"parameter_longname" : "live.slider[70]",
							"parameter_mmax" : 1.0,
							"parameter_shortname" : "Force.position",
							"parameter_type" : 0,
							"parameter_unitstyle" : 1
						}

					}
,
					"varname" : "live.slider[1]"
				}

			}
, 			{
				"box" : 				{
					"color" : [ 0.439216, 0.74902, 0.254902, 1.0 ],
					"id" : "obj-49",
					"maxclass" : "newobj",
					"numinlets" : 0,
					"numoutlets" : 1,
					"outlettype" : [ "" ],
					"patching_rect" : [ 245.25, 487.0, 43.0, 22.0 ],
					"text" : "r reset"
				}

			}
, 			{
				"box" : 				{
					"id" : "obj-46",
					"maxclass" : "message",
					"numinlets" : 2,
					"numoutlets" : 1,
					"outlettype" : [ "" ],
					"patching_rect" : [ 245.25, 582.0, 239.0, 22.0 ],
					"text" : "MonoString@access-out-1-position $1 0.01"
				}

			}
, 			{
				"box" : 				{
					"id" : "obj-44",
					"maxclass" : "live.slider",
					"numinlets" : 1,
					"numoutlets" : 2,
					"orientation" : 1,
					"outlettype" : [ "", "float" ],
					"parameter_enable" : 1,
					"patching_rect" : [ 245.25, 525.0, 156.0, 41.0 ],
					"saved_attribute_attributes" : 					{
						"valueof" : 						{
							"parameter_initial" : [ 0.24 ],
							"parameter_initial_enable" : 1,
							"parameter_longname" : "live.slider[69]",
							"parameter_mmax" : 1.0,
							"parameter_shortname" : "Output.position",
							"parameter_type" : 0,
							"parameter_unitstyle" : 1
						}

					}
,
					"varname" : "live.slider"
				}

			}
, 			{
				"box" : 				{
					"id" : "obj-25",
					"linecount" : 3,
					"maxclass" : "comment",
					"numinlets" : 1,
					"numoutlets" : 0,
					"patching_rect" : [ 197.0, 643.0, 151.0, 47.0 ],
					"text" : "String excited by the force of a signal based on Jean Lochard "
				}

			}
, 			{
				"box" : 				{
					"format" : 6,
					"id" : "obj-23",
					"maxclass" : "flonum",
					"numinlets" : 1,
					"numoutlets" : 2,
					"outlettype" : [ "", "bang" ],
					"parameter_enable" : 0,
					"patching_rect" : [ 804.0, 371.0, 50.0, 22.0 ]
				}

			}
, 			{
				"box" : 				{
					"id" : "obj-21",
					"maxclass" : "message",
					"numinlets" : 2,
					"numoutlets" : 1,
					"outlettype" : [ "" ],
					"patching_rect" : [ 804.0, 398.0, 51.0, 22.0 ],
					"text" : "pitch $1"
				}

			}
, 			{
				"box" : 				{
					"id" : "obj-18",
					"maxclass" : "newobj",
					"numinlets" : 1,
					"numoutlets" : 1,
					"outlettype" : [ "" ],
					"patching_rect" : [ 804.0, 343.0, 32.0, 22.0 ],
					"text" : "mtof"
				}

			}
, 			{
				"box" : 				{
					"id" : "obj-17",
					"maxclass" : "newobj",
					"numinlets" : 1,
					"numoutlets" : 2,
					"outlettype" : [ "bang", "int" ],
					"patching_rect" : [ 706.0, 307.0, 104.5, 22.0 ],
					"text" : "t b i"
				}

			}
, 			{
				"box" : 				{
					"id" : "obj-16",
					"maxclass" : "button",
					"numinlets" : 1,
					"numoutlets" : 1,
					"outlettype" : [ "bang" ],
					"parameter_enable" : 0,
					"patching_rect" : [ 734.0, 399.0, 24.0, 24.0 ]
				}

			}
, 			{
				"box" : 				{
					"id" : "obj-14",
					"maxclass" : "button",
					"numinlets" : 1,
					"numoutlets" : 1,
					"outlettype" : [ "bang" ],
					"parameter_enable" : 0,
					"patching_rect" : [ 656.694916486740112, 369.0, 24.0, 24.0 ]
				}

			}
, 			{
				"box" : 				{
					"color" : [ 0.439216, 0.74902, 0.254902, 1.0 ],
					"id" : "obj-12",
					"maxclass" : "newobj",
					"numinlets" : 1,
					"numoutlets" : 0,
					"patching_rect" : [ 656.694916486740112, 440.0, 45.0, 22.0 ],
					"text" : "s reset"
				}

			}
, 			{
				"box" : 				{
					"id" : "obj-11",
					"maxclass" : "newobj",
					"numinlets" : 1,
					"numoutlets" : 2,
					"outlettype" : [ "bang", "bang" ],
					"patching_rect" : [ 656.694916486740112, 399.0, 68.305083513259888, 22.0 ],
					"text" : "b 2"
				}

			}
, 			{
				"box" : 				{
					"id" : "obj-10",
					"maxclass" : "message",
					"numinlets" : 2,
					"numoutlets" : 1,
					"outlettype" : [ "" ],
					"patching_rect" : [ 661.694916486740112, 606.0, 35.0, 22.0 ],
					"text" : "clear"
				}

			}
, 			{
				"box" : 				{
					"color" : [ 0.92549, 0.364706, 0.341176, 1.0 ],
					"id" : "obj-8",
					"maxclass" : "newobj",
					"numinlets" : 1,
					"numoutlets" : 1,
					"outlettype" : [ "" ],
					"patching_rect" : [ 706.0, 606.0, 100.0, 22.0 ],
					"saved_object_attributes" : 					{
						"channel" : 1,
						"gain" : 1.0,
						"name" : "PointOutput"
					}
,
					"text" : "mlys.point-output"
				}

			}
, 			{
				"box" : 				{
					"color" : [ 0.701961, 0.415686, 0.886275, 1.0 ],
					"id" : "obj-7",
					"linecount" : 3,
					"maxclass" : "newobj",
					"numinlets" : 1,
					"numoutlets" : 1,
					"outlettype" : [ "" ],
					"patching_rect" : [ 706.0, 542.0, 136.0, 49.0 ],
					"saved_object_attributes" : 					{
						"access-in-initial-position" : [ 0.050000000745058 ],
						"access-out-initial-position" : [ 0.100000001490116 ],
						"const-loss" : 1.0,
						"density" : 7800.0,
						"freq-loss" : 1.0,
						"length" : 1.0,
						"modes" : 160,
						"name" : "MonoString",
						"pitch" : 164.81378173828125,
						"pitch-parameter" : "tension",
						"radius" : 0.001000000047497,
						"tension" : 94.660003662109375,
						"young" : [ 2.0, 11.0 ]
					}
,
					"text" : "mlys.mono-string 1 1 @pitch-parameter tension @modes 160"
				}

			}
, 			{
				"box" : 				{
					"id" : "obj-6",
					"maxclass" : "newobj",
					"numinlets" : 1,
					"numoutlets" : 1,
					"outlettype" : [ "" ],
					"patching_rect" : [ 706.0, 501.0, 63.0, 22.0 ],
					"saved_object_attributes" : 					{
						"force" : 0.0,
						"name" : "ForceConnection",
						"weight" : 1.0
					}
,
					"text" : "mlys.force"
				}

			}
, 			{
				"box" : 				{
					"id" : "obj-5",
					"maxclass" : "newobj",
					"numinlets" : 1,
					"numoutlets" : 1,
					"outlettype" : [ "" ],
					"patching_rect" : [ 706.0, 470.0, 68.0, 22.0 ],
					"saved_object_attributes" : 					{
						"name" : "SignalController"
					}
,
					"text" : "mlys.signal"
				}

			}
, 			{
				"box" : 				{
					"color" : [ 0.92549, 0.364706, 0.341176, 1.0 ],
					"id" : "obj-4",
					"maxclass" : "newobj",
					"numinlets" : 1,
					"numoutlets" : 1,
					"outlettype" : [ "" ],
					"patching_rect" : [ 706.0, 440.0, 93.0, 22.0 ],
					"saved_object_attributes" : 					{
						"channel" : 1,
						"gain" : 1.0,
						"name" : "PointInput"
					}
,
					"text" : "mlys.point-input"
				}

			}
, 			{
				"box" : 				{
					"id" : "obj-3",
					"maxclass" : "newobj",
					"numinlets" : 1,
					"numoutlets" : 1,
					"outlettype" : [ "" ],
					"patching_rect" : [ 706.0, 641.0, 65.0, 22.0 ],
					"saved_object_attributes" : 					{
						"angle-mode" : "degree",
						"multi" : 0,
						"precision" : "float"
					}
,
					"text" : "mlys.script"
				}

			}
, 			{
				"box" : 				{
					"color" : [ 0.92549, 0.364706, 0.341176, 1.0 ],
					"id" : "obj-1",
					"maxclass" : "newobj",
					"numinlets" : 1,
					"numoutlets" : 2,
					"outlettype" : [ "signal", "" ],
					"patching_rect" : [ 706.0, 684.0, 80.0, 22.0 ],
					"saved_object_attributes" : 					{
						"precision" : ""
					}
,
					"text" : "modalys~ 1 1"
				}

			}
 ],
		"lines" : [ 			{
				"patchline" : 				{
					"destination" : [ "obj-55", 0 ],
					"source" : [ "obj-1", 0 ]
				}

			}
, 			{
				"patchline" : 				{
					"destination" : [ "obj-3", 0 ],
					"source" : [ "obj-10", 0 ]
				}

			}
, 			{
				"patchline" : 				{
					"destination" : [ "obj-12", 0 ],
					"source" : [ "obj-11", 0 ]
				}

			}
, 			{
				"patchline" : 				{
					"destination" : [ "obj-4", 0 ],
					"source" : [ "obj-11", 1 ]
				}

			}
, 			{
				"patchline" : 				{
					"destination" : [ "obj-119", 0 ],
					"source" : [ "obj-118", 2 ]
				}

			}
, 			{
				"patchline" : 				{
					"destination" : [ "obj-119", 0 ],
					"order" : 0,
					"source" : [ "obj-118", 0 ]
				}

			}
, 			{
				"patchline" : 				{
					"destination" : [ "obj-39", 0 ],
					"order" : 1,
					"source" : [ "obj-118", 0 ]
				}

			}
, 			{
				"patchline" : 				{
					"destination" : [ "obj-58", 0 ],
					"source" : [ "obj-119", 0 ]
				}

			}
, 			{
				"patchline" : 				{
					"destination" : [ "obj-11", 0 ],
					"source" : [ "obj-14", 0 ]
				}

			}
, 			{
				"patchline" : 				{
					"destination" : [ "obj-4", 0 ],
					"source" : [ "obj-16", 0 ]
				}

			}
, 			{
				"patchline" : 				{
					"destination" : [ "obj-14", 0 ],
					"source" : [ "obj-17", 0 ]
				}

			}
, 			{
				"patchline" : 				{
					"destination" : [ "obj-18", 0 ],
					"source" : [ "obj-17", 1 ]
				}

			}
, 			{
				"patchline" : 				{
					"destination" : [ "obj-23", 0 ],
					"source" : [ "obj-18", 0 ]
				}

			}
, 			{
				"patchline" : 				{
					"destination" : [ "obj-1", 0 ],
					"source" : [ "obj-2", 0 ]
				}

			}
, 			{
				"patchline" : 				{
					"destination" : [ "obj-60", 0 ],
					"source" : [ "obj-20", 0 ]
				}

			}
, 			{
				"patchline" : 				{
					"destination" : [ "obj-7", 0 ],
					"source" : [ "obj-21", 0 ]
				}

			}
, 			{
				"patchline" : 				{
					"destination" : [ "obj-21", 0 ],
					"source" : [ "obj-23", 0 ]
				}

			}
, 			{
				"patchline" : 				{
					"destination" : [ "obj-31", 0 ],
					"source" : [ "obj-27", 0 ]
				}

			}
, 			{
				"patchline" : 				{
					"destination" : [ "obj-1", 0 ],
					"source" : [ "obj-29", 0 ]
				}

			}
, 			{
				"patchline" : 				{
					"destination" : [ "obj-1", 0 ],
					"source" : [ "obj-3", 0 ]
				}

			}
, 			{
				"patchline" : 				{
					"destination" : [ "obj-17", 0 ],
					"source" : [ "obj-30", 0 ]
				}

			}
, 			{
				"patchline" : 				{
					"destination" : [ "obj-48", 0 ],
					"source" : [ "obj-30", 2 ]
				}

			}
, 			{
				"patchline" : 				{
					"destination" : [ "obj-70", 0 ],
					"source" : [ "obj-30", 1 ]
				}

			}
, 			{
				"patchline" : 				{
					"destination" : [ "obj-29", 0 ],
					"source" : [ "obj-31", 0 ]
				}

			}
, 			{
				"patchline" : 				{
					"destination" : [ "obj-45", 0 ],
					"source" : [ "obj-33", 0 ]
				}

			}
, 			{
				"patchline" : 				{
					"destination" : [ "obj-118", 2 ],
					"source" : [ "obj-34", 0 ]
				}

			}
, 			{
				"patchline" : 				{
					"destination" : [ "obj-1", 0 ],
					"source" : [ "obj-35", 0 ]
				}

			}
, 			{
				"patchline" : 				{
					"destination" : [ "obj-30", 0 ],
					"source" : [ "obj-36", 0 ]
				}

			}
, 			{
				"patchline" : 				{
					"destination" : [ "obj-55", 1 ],
					"source" : [ "obj-39", 0 ]
				}

			}
, 			{
				"patchline" : 				{
					"destination" : [ "obj-5", 0 ],
					"source" : [ "obj-4", 0 ]
				}

			}
, 			{
				"patchline" : 				{
					"destination" : [ "obj-52", 0 ],
					"source" : [ "obj-40", 0 ]
				}

			}
, 			{
				"patchline" : 				{
					"destination" : [ "obj-44", 0 ],
					"source" : [ "obj-41", 0 ]
				}

			}
, 			{
				"patchline" : 				{
					"destination" : [ "obj-45", 0 ],
					"source" : [ "obj-42", 0 ]
				}

			}
, 			{
				"patchline" : 				{
					"destination" : [ "obj-46", 0 ],
					"source" : [ "obj-44", 0 ]
				}

			}
, 			{
				"patchline" : 				{
					"destination" : [ "obj-35", 0 ],
					"source" : [ "obj-45", 0 ]
				}

			}
, 			{
				"patchline" : 				{
					"destination" : [ "obj-1", 0 ],
					"source" : [ "obj-46", 0 ]
				}

			}
, 			{
				"patchline" : 				{
					"destination" : [ "obj-14", 0 ],
					"source" : [ "obj-48", 0 ]
				}

			}
, 			{
				"patchline" : 				{
					"destination" : [ "obj-7", 0 ],
					"source" : [ "obj-48", 1 ]
				}

			}
, 			{
				"patchline" : 				{
					"destination" : [ "obj-44", 0 ],
					"source" : [ "obj-49", 0 ]
				}

			}
, 			{
				"patchline" : 				{
					"destination" : [ "obj-6", 0 ],
					"source" : [ "obj-5", 0 ]
				}

			}
, 			{
				"patchline" : 				{
					"destination" : [ "obj-52", 0 ],
					"source" : [ "obj-50", 0 ]
				}

			}
, 			{
				"patchline" : 				{
					"destination" : [ "obj-1", 0 ],
					"source" : [ "obj-51", 0 ]
				}

			}
, 			{
				"patchline" : 				{
					"destination" : [ "obj-51", 0 ],
					"source" : [ "obj-52", 0 ]
				}

			}
, 			{
				"patchline" : 				{
					"destination" : [ "obj-1", 0 ],
					"source" : [ "obj-54", 0 ]
				}

			}
, 			{
				"patchline" : 				{
					"destination" : [ "obj-38", 0 ],
					"source" : [ "obj-55", 0 ]
				}

			}
, 			{
				"patchline" : 				{
					"destination" : [ "obj-119", 0 ],
					"source" : [ "obj-59", 0 ]
				}

			}
, 			{
				"patchline" : 				{
					"destination" : [ "obj-7", 0 ],
					"source" : [ "obj-6", 0 ]
				}

			}
, 			{
				"patchline" : 				{
					"destination" : [ "obj-118", 0 ],
					"source" : [ "obj-60", 1 ]
				}

			}
, 			{
				"patchline" : 				{
					"destination" : [ "obj-59", 0 ],
					"source" : [ "obj-60", 0 ]
				}

			}
, 			{
				"patchline" : 				{
					"destination" : [ "obj-118", 4 ],
					"source" : [ "obj-63", 0 ]
				}

			}
, 			{
				"patchline" : 				{
					"destination" : [ "obj-118", 3 ],
					"source" : [ "obj-64", 0 ]
				}

			}
, 			{
				"patchline" : 				{
					"destination" : [ "obj-8", 0 ],
					"source" : [ "obj-7", 0 ]
				}

			}
, 			{
				"patchline" : 				{
					"destination" : [ "obj-118", 0 ],
					"source" : [ "obj-70", 0 ]
				}

			}
, 			{
				"patchline" : 				{
					"destination" : [ "obj-118", 1 ],
					"source" : [ "obj-71", 0 ]
				}

			}
, 			{
				"patchline" : 				{
					"destination" : [ "obj-3", 0 ],
					"source" : [ "obj-8", 0 ]
				}

			}
 ]
	}

}
